<svg xmlns="http://www.w3.org/2000/svg" xmlns:xlink="http://www.w3.org/1999/xlink" width="500" zoomAndPan="magnify" viewBox="0 0 375 374.999991" height="500" preserveAspectRatio="xMidYMid meet" version="1.0"><defs><clipPath id="f052bfe291"><path d="M 50.117188 75 L 324.617188 75 L 324.617188 253.5 L 50.117188 253.5 Z M 50.117188 75 " clip-rule="nonzero"/></clipPath><clipPath id="910098c06b"><path d="M 9 63.796875 L 366 63.796875 L 366 281.296875 L 9 281.296875 Z M 9 63.796875 " clip-rule="nonzero"/></clipPath><clipPath id="4482d94c53"><path d="M 89.449219 134.269531 L 201.949219 134.269531 L 201.949219 337.519531 L 89.449219 337.519531 Z M 89.449219 134.269531 " clip-rule="nonzero"/></clipPath><clipPath id="53ff09d386"><path d="M 89.664062 134.269531 L 202.164062 134.269531 L 202.164062 337.519531 L 89.664062 337.519531 Z M 89.664062 134.269531 " clip-rule="nonzero"/></clipPath></defs><g clip-path="url(#f052bfe291)"><path fill="#ffffff" d="M 50.117188 75 L 324.613281 75 L 324.613281 253.5 L 50.117188 253.5 L 50.117188 75 " fill-opacity="1" fill-rule="nonzero"/></g><g clip-path="url(#910098c06b)"><path fill="#e1e9f0" d="M 50.480469 63.796875 C 44.921875 63.796875 40.449219 68.175781 40.449219 73.617188 L 40.449219 253.3125 C 40.449219 258.488281 39.71875 262.703125 44.425781 263.105469 L 11.453125 263.105469 C 7.550781 263.105469 9.546875 266.148438 9.546875 269.929688 L 9.546875 274.476562 C 9.546875 278.253906 12.6875 281.296875 16.589844 281.296875 L 358.210938 281.296875 C 362.113281 281.296875 365.257812 278.253906 365.257812 274.476562 L 365.257812 269.929688 C 365.257812 266.148438 367.253906 263.105469 363.351562 263.105469 L 330.375 263.105469 C 335.085938 262.703125 334.355469 258.488281 334.355469 253.3125 L 334.355469 73.617188 C 334.355469 68.175781 329.878906 63.796875 324.320312 63.796875 Z M 137.164062 66.179688 C 138.589844 66.179688 139.746094 67.308594 139.746094 68.707031 C 139.746094 70.101562 138.589844 71.234375 137.164062 71.234375 C 135.738281 71.234375 134.582031 70.101562 134.582031 68.707031 C 134.582031 67.308594 135.738281 66.179688 137.164062 66.179688 Z M 50.238281 73.636719 L 324.566406 73.636719 L 324.566406 253.292969 L 50.238281 253.292969 Z M 142.804688 263.136719 L 232 263.136719 C 231.867188 265.039062 230.542969 266.523438 228.921875 266.523438 L 145.882812 266.523438 C 144.257812 266.523438 142.9375 265.039062 142.804688 263.136719 Z M 323.910156 268.519531 C 326.007812 268.519531 327.710938 270.167969 327.710938 272.203125 C 327.710938 274.238281 326.007812 275.886719 323.910156 275.886719 C 321.808594 275.886719 320.105469 274.238281 320.105469 272.203125 C 320.105469 270.167969 321.808594 268.519531 323.910156 268.519531 Z M 335.90625 268.519531 C 338.003906 268.519531 339.707031 270.167969 339.707031 272.203125 C 339.707031 274.238281 338.003906 275.886719 335.90625 275.886719 C 333.804688 275.886719 332.101562 274.238281 332.101562 272.203125 C 332.101562 270.167969 333.804688 268.519531 335.90625 268.519531 Z M 347.902344 268.519531 C 350.003906 268.519531 351.703125 270.167969 351.703125 272.203125 C 351.703125 274.238281 350.003906 275.886719 347.902344 275.886719 C 345.800781 275.886719 344.097656 274.238281 344.097656 272.203125 C 344.097656 270.167969 345.800781 268.519531 347.902344 268.519531 Z M 24.726562 270.957031 L 44.683594 270.957031 C 45.660156 270.957031 46.445312 271.511719 46.445312 272.203125 C 46.445312 272.890625 45.660156 273.445312 44.683594 273.445312 L 24.726562 273.445312 C 23.75 273.445312 22.964844 272.890625 22.964844 272.203125 C 22.964844 271.511719 23.75 270.957031 24.726562 270.957031 Z M 24.726562 270.957031 " fill-opacity="1" fill-rule="nonzero"/></g><g clip-path="url(#4482d94c53)"><path fill="#ffffff" d="M 89.453125 134.269531 L 201.949219 134.269531 L 201.949219 337.519531 L 89.453125 337.519531 L 89.453125 134.269531 " fill-opacity="1" fill-rule="nonzero"/></g><g clip-path="url(#53ff09d386)"><path fill="#e1e9f0" d="M 104.722656 134.273438 C 97.003906 134.273438 90.792969 141.738281 90.792969 151.011719 L 90.792969 170.460938 C 90.164062 170.585938 89.691406 171.140625 89.691406 171.804688 L 89.691406 178.082031 C 89.691406 178.75 90.164062 179.304688 90.792969 179.429688 L 90.792969 186.199219 C 90.164062 186.328125 89.691406 186.878906 89.691406 187.546875 L 89.691406 198.0625 C 89.691406 198.730469 90.164062 199.28125 90.792969 199.410156 L 90.792969 203.960938 C 90.164062 204.085938 89.691406 204.640625 89.691406 205.304688 L 89.691406 215.824219 C 89.691406 216.492188 90.164062 217.042969 90.792969 217.171875 L 90.792969 320.789062 C 90.792969 330.058594 97.003906 337.523438 104.722656 337.523438 L 186.570312 337.523438 C 194.289062 337.523438 200.503906 330.058594 200.503906 320.789062 L 200.503906 199.410156 C 200.589844 199.425781 200.675781 199.433594 200.765625 199.433594 C 201.527344 199.433594 202.144531 198.824219 202.144531 198.0625 L 202.144531 187.542969 C 202.144531 186.78125 201.527344 186.171875 200.765625 186.171875 C 200.675781 186.171875 200.589844 186.179688 200.503906 186.195312 L 200.503906 151.007812 C 200.503906 141.738281 194.289062 134.273438 186.570312 134.273438 Z M 145.648438 138.480469 C 145.863281 138.480469 146.066406 138.519531 146.265625 138.601562 C 146.460938 138.683594 146.636719 138.800781 146.789062 138.949219 C 146.941406 139.101562 147.054688 139.277344 147.136719 139.472656 C 147.21875 139.671875 147.261719 139.875 147.261719 140.089844 C 147.261719 140.300781 147.21875 140.507812 147.136719 140.707031 C 147.054688 140.902344 146.941406 141.078125 146.789062 141.226562 C 146.636719 141.378906 146.460938 141.496094 146.265625 141.578125 C 146.066406 141.660156 145.863281 141.699219 145.648438 141.699219 C 145.433594 141.699219 145.226562 141.660156 145.03125 141.578125 C 144.832031 141.496094 144.660156 141.378906 144.507812 141.226562 C 144.355469 141.078125 144.238281 140.902344 144.15625 140.707031 C 144.074219 140.507812 144.035156 140.300781 144.035156 140.089844 C 144.035156 139.875 144.074219 139.671875 144.15625 139.472656 C 144.238281 139.277344 144.355469 139.101562 144.507812 138.949219 C 144.660156 138.800781 144.832031 138.683594 145.03125 138.601562 C 145.226562 138.519531 145.433594 138.480469 145.648438 138.480469 Z M 124 144.933594 C 124.242188 144.933594 124.472656 144.980469 124.695312 145.074219 C 124.917969 145.164062 125.113281 145.296875 125.285156 145.464844 C 125.453125 145.636719 125.585938 145.832031 125.675781 146.054688 C 125.769531 146.273438 125.816406 146.507812 125.816406 146.746094 C 125.816406 146.988281 125.769531 147.21875 125.675781 147.441406 C 125.585938 147.660156 125.453125 147.859375 125.285156 148.027344 C 125.113281 148.195312 124.917969 148.328125 124.695312 148.421875 C 124.472656 148.511719 124.242188 148.558594 124 148.558594 C 123.757812 148.558594 123.527344 148.511719 123.304688 148.421875 C 123.082031 148.328125 122.886719 148.195312 122.714844 148.027344 C 122.546875 147.859375 122.414062 147.660156 122.324219 147.441406 C 122.230469 147.21875 122.183594 146.988281 122.183594 146.746094 C 122.183594 146.507812 122.230469 146.273438 122.324219 146.054688 C 122.414062 145.832031 122.546875 145.636719 122.714844 145.464844 C 122.886719 145.296875 123.082031 145.164062 123.304688 145.074219 C 123.527344 144.980469 123.757812 144.933594 124 144.933594 Z M 135.070312 145.953125 L 156.765625 145.953125 C 157.199219 145.953125 157.550781 146.402344 157.550781 146.957031 C 157.550781 147.515625 157.199219 147.964844 156.765625 147.964844 L 135.070312 147.964844 C 134.632812 147.964844 134.28125 147.515625 134.28125 146.957031 C 134.28125 146.402344 134.632812 145.953125 135.070312 145.953125 Z M 93.382812 157.078125 L 197.914062 157.078125 L 197.914062 314.71875 L 93.382812 314.71875 Z M 145.648438 318.375 C 146.171875 318.375 146.6875 318.425781 147.203125 318.527344 C 147.714844 318.628906 148.210938 318.78125 148.695312 318.980469 C 149.179688 319.179688 149.636719 319.425781 150.070312 319.714844 C 150.507812 320.003906 150.910156 320.335938 151.277344 320.703125 C 151.648438 321.070312 151.976562 321.472656 152.269531 321.90625 C 152.558594 322.339844 152.804688 322.800781 153.003906 323.28125 C 153.203125 323.765625 153.355469 324.261719 153.457031 324.773438 C 153.558594 325.285156 153.609375 325.800781 153.609375 326.324219 C 153.609375 326.84375 153.558594 327.363281 153.457031 327.875 C 153.355469 328.386719 153.203125 328.882812 153.003906 329.363281 C 152.804688 329.847656 152.558594 330.304688 152.269531 330.738281 C 151.976562 331.171875 151.648438 331.574219 151.277344 331.945312 C 150.910156 332.3125 150.507812 332.640625 150.070312 332.933594 C 149.636719 333.222656 149.179688 333.46875 148.695312 333.667969 C 148.210938 333.867188 147.714844 334.015625 147.203125 334.117188 C 146.6875 334.21875 146.171875 334.273438 145.648438 334.273438 C 145.125 334.273438 144.605469 334.21875 144.09375 334.117188 C 143.582031 334.015625 143.082031 333.867188 142.601562 333.667969 C 142.117188 333.46875 141.660156 333.222656 141.222656 332.933594 C 140.789062 332.640625 140.386719 332.3125 140.015625 331.945312 C 139.648438 331.574219 139.316406 331.171875 139.027344 330.738281 C 138.738281 330.304688 138.492188 329.847656 138.292969 329.363281 C 138.089844 328.882812 137.941406 328.386719 137.839844 327.875 C 137.734375 327.363281 137.683594 326.84375 137.683594 326.324219 C 137.683594 325.800781 137.734375 325.285156 137.839844 324.773438 C 137.941406 324.261719 138.089844 323.765625 138.289062 323.28125 C 138.492188 322.800781 138.738281 322.339844 139.027344 321.90625 C 139.316406 321.472656 139.648438 321.074219 140.015625 320.703125 C 140.386719 320.335938 140.789062 320.003906 141.222656 319.714844 C 141.660156 319.425781 142.117188 319.179688 142.601562 318.980469 C 143.082031 318.78125 143.582031 318.628906 144.09375 318.527344 C 144.605469 318.425781 145.125 318.375 145.648438 318.375 Z M 145.648438 318.375 " fill-opacity="1" fill-rule="nonzero"/></g></svg>